<svg t="1704119996397" class="icon" viewBox="0 0 1024 1024" version="1.1" xmlns="http://www.w3.org/2000/svg" p-id="2389"
     width="200" height="200">
    <path d="M512 135.529412A376.470588 376.470588 0 1 0 888.470588 512 376.872157 376.872157 0 0 0 512 135.529412z m0 722.823529A346.352941 346.352941 0 1 1 858.352941 512 346.75451 346.75451 0 0 1 512 858.352941z"
          fill="#030F09" p-id="2390"></path>
    <path d="M378.478431 449.355294m-35.137255 0a35.137255 35.137255 0 1 0 70.27451 0 35.137255 35.137255 0 1 0-70.27451 0Z"
          fill="#030F09" p-id="2391"></path>
    <path d="M645.521569 449.355294m-35.137255 0a35.137255 35.137255 0 1 0 70.27451 0 35.137255 35.137255 0 1 0-70.27451 0Z"
          fill="#030F09" p-id="2392"></path>
    <path d="M657.367843 582.27451H366.632157a15.058824 15.058824 0 0 0-14.456471 18.873725 164.843922 164.843922 0 0 0 319.648628 0 15.058824 15.058824 0 0 0-14.456471-18.873725z m-145.367843 112.238431a135.328627 135.328627 0 0 1-124.486275-82.923921h248.97255a135.328627 135.328627 0 0 1-124.486275 82.923921z"
          fill="#030F09" p-id="2393"></path>
</svg>