<svg t="1707813496956" class="icon" viewBox="0 0 1024 1024" version="1.1" xmlns="http://www.w3.org/2000/svg"
     p-id="22071" width="200" height="200">
    <path d="M872.165347 16.446233 182.179734 16.446233c-30.764947 0-55.707158 24.941204-55.707158 55.707158 0 13.383331 4.724239 25.661117 12.589916 35.265661 0.637349 0.741057 1.286781 1.49319 1.942254 2.252371C213.718965 193.859943 392.204993 388.379386 396.315041 395.880576c4.12213 7.673365 6.495326 16.417033 6.595006 25.712468l0 1.342159c-0.005034 0.132907-0.008055 0.266821-0.011076 0.399728l0.011076 0 0 8.838315 0 342.426795c0 15.382977 12.469092 27.853075 27.854082 27.853075 15.380963 0 27.853075-12.470099 27.853075-27.853075l0-330.716884 0-9.419279c13.545437 4.640669 28.125938 7.020912 43.274313 6.69972 34.604146-0.734009 65.634907-15.424259 87.829367-38.582294 2.992421-3.1213 6.277841-5.958663 9.805918-8.482889-0.14801 10.240886 0.190299 20.433442 0.190299 23.650395l-0.028192 0 0 577.565433c0 15.382977 12.470099 27.853075 27.853075 27.853075s27.853075-12.470099 27.853075-27.853075L655.395059 473.45496c0 0 0-45.897213 0-55.27521s3.388121-21.3064 6.631253-24.96839c0.271855-0.306089 2.247336-2.535301 5.625389-6.349329 7.191073-8.116388 20.769737-23.443987 37.989247-42.883647 71.54524-80.759118 205.911183-232.432168 205.911183-232.432168 1.534472-1.533465 2.967249-3.167617 4.317463-4.873256 7.507231-9.491774 12.001904-21.478574 12.001904-34.520576C927.871498 41.387437 902.932308 16.446233 872.165347 16.446233zM835.004755 100.005459c-17.825646 22.667689-2.70647 4.059704-5.643513 7.792176-26.571329 33.75334-134.783794 155.111515-190.043901 217.636197-0.660507 0.004027-1.319001 0.003021-1.981522 0.017117-34.604146 0.734009-65.634907 15.424259-87.830374 38.583301-12.330144 12.863785-29.568784 21.027496-48.794988 21.435279-18.9765 0.401742-36.329923-6.835648-49.148399-18.880847C425.51833 337.44379 228.271273 123.92771 208.27884 100.005459c-21.338619-25.530224-1.771086-27.853075 13.918986-27.853075 15.689066 0 15.689066 0 15.689066 0l578.571297 0 4.628586 0C840.741907 72.560166 852.830401 77.339784 835.004755 100.005459z"
          fill="#040000" p-id="22072"></path>
</svg>