<svg t="1707806397607" class="icon" viewBox="0 0 1024 1024" version="1.1" xmlns="http://www.w3.org/2000/svg" p-id="8200"
     width="200" height="200">
    <path d="M512 51.2C257.5104 51.2 51.2 257.5104 51.2 512s206.3104 460.8 460.8 460.8c254.4896 0 460.8-206.3104 460.8-460.8S766.4896 51.2 512 51.2zM737.7152 596.096l0 3.2384 0 3.0336-0.5504 3.648-0.7808 6.2592-1.088 5.6576-1.664 5.1072-0.6144 2.0864-1.1648 2.496-0.9856 1.7536-1.2928 2.1504-1.1648 1.3568-1.472 1.7536-1.2928 1.408-1.3952 1.2032-1.664 0.7424-1.4976 0.7424-1.2288 0.3968-1.0752 0-0.8064 0-1.2032-0.3968-2.304-1.1392-1.0624-0.7424-1.088-0.8064-1.2032-1.088-1.216-1.2032-2.0096-2.2272-2.3808-3.1616-1.8688-3.2512-1.8816-2.6112-1.8176-3.0336-2.5728-5.3888-2.8928-5.6064-0.3456-0.192L693.632 608.2816l-1.1904 0.8832-0.6784 1.472-1.1264 1.8176-1.984 5.4656-2.9696 7.744-3.8144 9.2928-2.8672 4.6592-3.0208 4.8512-3.5584 5.4528-3.7888 5.3376-1.9456 2.4192-2.3552 2.624-5.4016 5.3248 0.4736 0.4736 0.7296 0.7552 2.688 1.6128 11.2512 5.4016 4.9024 2.7648 4.672 2.688 4.6336 3.3792 4.1216 3.5072 2.0096 1.5488 1.4976 1.8176 1.536 2.0992 1.2928 2.2912 0.6784 1.8816 0.8576 2.2912 0.3456 1.9456 0.4096 2.2912-0.4096 1.5488 0 1.5488-0.3456 1.6128-0.8576 1.4848-0.3456 1.152-0.7552 1.408-2.048 2.7648-1.8688 2.2272-1.472 1.6768-1.2288 1.216-3.1104 2.2784-3.5072 1.9712-3.7504 1.8816-3.9936 1.8176-4.5056 1.7408-2.3808 0.7552-2.1504 0.5888-5.184 1.216-5.3888 1.1392-5.3888 1.152-5.8624 0.9472-6.0672 0.2688-6.208 0.7424-6.1312 0-6.4768 0-6.6432 0-6.9504-0.3968-6.4768-0.6016-6.9504-0.9472-6.9248-0.7424-7.296-1.0112-7.0528-1.7536-6.8864-1.344-6.848-1.9456-7.0272-2.496-6.8864-2.0864-3.6096-1.2032-3.2384-1.152-2.048-0.8064-2.0096-0.3968-2.624 0-3.0976 0-6.6176-0.4736-3.3536-0.3456-4.3136-0.4736-2.7648 2.496-3.7888 2.368-5.1072 2.496-5.6576 3.0976-3.4432 1.6896-3.584 1.3312-7.9488 3.2384-4.3136 1.088-4.5184 1.2032-6.272 1.216-3.9168 0.3328-4.16 0.3456-4.3264 0.4736-5.0432 0.2048-4.8384 0L440.064 738.9184l-10.7264 0-11.648-0.2048-11.2896-1.152-5.7216-0.8064-5.5296-0.8192-5.3888-0.8064-5.3888-1.088-4.992-1.6256-4.992-1.1392-4.4928-1.8176-4.2624-1.6896-3.9552-1.8944-3.4432-2.0864-3.4432-2.496-1.1648-1.2032-1.536-1.472-1.1648-1.2928-1.0624-1.472-0.9472-1.4848-0.7552-1.4848-1.0752-3.1616-0.3968-1.6128-0.4736-1.8176 0-1.6768 0.4736-1.8816 0-1.8944 0.3968-1.8816 0-1.1392 0-2.6368 0.192-2.0224 0.8832-2.2912 0.7552-2.2912 1.3696-2.7648 0.9856-1.0752 0.8192-1.216 2.1504-2.624 1.7024-1.344 1.6-0.9472 1.4848-1.216 2.368-0.7424 1.8688-1.1392 2.3552-1.216 2.688-0.8064 2.688-0.8192 3.0976-0.6784 2.9696-0.3968 3.5072-0.4736 3.7888-0.2688 0.9984-0.3456 0.2048 0 0.4736-0.4096 0-0.4608-0.6784-0.9472-2.0224-0.9472-5.0432-4.3776-3.3792-2.688-3.9168-3.4304-3.9552-3.8272-4.1216-4.928-4.7104-5.5168-1.7664-2.9696-2.3552-3.0976-2.0096-3.584-1.8048-3.904-2.4576-3.712L346.24 621.44l-1.8944-4.2496-1.8944-4.7232-1.3952-4.5056-1.2928-5.5936-0.4096-0.2048-0.3968 0-0.2048-0.3968-0.4736 0-0.8064 0.3968-0.4096 0.2048-0.5504 0.9472-0.2048 1.1392-0.4096 1.0112-0.7168 1.6768-2.3168 4.1216-1.1904 2.496-1.8944 2.1504-2.0224 2.6112-2.2144 2.9056-2.3552 2.56-2.7648 2.4832-2.5728 2.3552-2.816 1.8304-3.0976 1.9584-2.9696 1.1392-3.5072 0.8832-3.4432 0.3328-0.3456 0-0.4736 0-0.7808-0.3328-0.6144-1.3568-1.024-0.6656-1.3312-3.2384-0.8192-1.7536-0.8832-2.496-0.7296-2.6112-0.3968-2.56-1.088-5.8624-0.4096-3.4432 0-3.5072 0-7.8208 0.4096-8.4224 0.6784-4.3136 0.8064-4.4544 0.7296-4.7872 1.2928-4.4544 1.472-5.1328 1.4976-4.9792 2.0096-5.1328 1.8944-4.9152 2.6112-4.9792 2.4576-5.3888 2.9696-5.056 3.4944-5.4656 3.5584-4.9152 3.712-5.4528 3.0976-3.776 3.968-4.3776 4.1728-4.3776 1.9456-2.0864 2.368-2.3552 3.4304-2.9696 3.5072-3.0336 5.7216-5.12 4.3264-3.1616 1.536-1.152-0.8576-2.624-0.6784-3.4432-0.4736-1.8816 0-2.3552 0-2.8288 0-2.56 0.8192-3.0336 0.8576-3.2384 1.088-3.3664 1.4848-3.7632 1.9584-3.9168 2.7648-3.9168 0-2.752 0.2688-2.56 0.4096-3.5072 1.1904-3.904 1.088-4.2496 0.8704-1.9584 0.9984-1.8176 1.2928-2.0224 1.3952-1.4976 0-2.752 0-3.1104 0-3.84 0.8192-4.992 0.8192-5.7984 1.4592-6.9376 2.0096-7.2064 1.4976-3.9808 1.4848-4.3136 1.6128-4.0448 1.9456-4.3136 1.9712-4.7232 2.2784-4.4416 2.56-4.7232 3.2384-4.7232 1.4848-2.688 1.6-2.2272 3.456-4.9792 3.5456-4.992 4.0576-5.12 4.3264-4.992 4.7104-4.9024 4.9024-5.0688 5.9392-5.4528 3.7888-3.3024 4.5824-3.5712 4.6592-3.1616 5.0432-3.0336 4.8384-2.688 5.4528-2.2272 5.7984-2.7648 5.76-1.8816 5.76-1.9456 6.208-1.9584 6.208-1.4848 6.5408-1.216 6.6176-1.0752 6.5152-0.8832 6.5408-0.8832 6.9504-0.3968 6.6176 0 6.848 0 7.0912 0 6.848 0.8704 6.8864 0.8192 7.0272 0.7424 6.5152 1.5488 6.8864 1.472 6.464 1.6768 7.0656 1.8944 6.4768 2.2912 6.208 2.624 6.6176 2.7648 6.0544 3.0336 5.8624 3.3536 5.7472 3.712 4.9792 3.4304 2.2784 1.9456 2.4192 1.4208 4.608 3.9168 3.8912 3.776 3.8528 3.9168 3.7888 4.3136 3.0976 4.1728 3.6864 4.3136 2.5984 4.6464 2.6112 4.1216 2.7776 4.7872 2.2912 4.1728 3.8912 8.832 1.9072 4.5824 1.4848 4.2496 1.4848 4.5824 1.3312 4.3136 0.96 3.712 1.1904 4.3776 2.112 7.8208 1.344 6.8096 0.8704 6.6048 0.7552 5.312 1.1904 8.0896 0.2688 1.28 0.96 1.4848 2.56 4.1728 1.6384 2.8288 1.472 2.9696 1.8688 3.1616 1.6384 3.7888 1.0624 3.904 1.1648 4.2496 0.8832 4.3776 0.4096 2.1504 0.3456 2.6368 0 2.2912-0.3456 2.2912 0 2.8416-0.6784 2.752-1.2288 5.3248-1.3952 2.688-1.024 3.0336 0 0.7424 0.4736 0.9472 1.3952 2.2272 6.0672 8.9728 4.8 6.7328 2.2784 4.5184 3.0976 4.9152 2.688 5.4016 3.0976 5.7856 3.0976 6.4768 3.4944 7.3472 1.9584 4.5056 1.8048 4.3776 1.5744 4.6592 1.536 4.1728 1.1648 4.3776 1.1904 4.1216 1.4976 8.0128 1.1904 8.2176 0.8192 7.2832L737.6896 596.096z"
          p-id="8201" fill="#FFFFFF80"></path>
</svg>