<svg t="1707880909916" class="icon" viewBox="0 0 6899 1024" version="1.1" xmlns="http://www.w3.org/2000/svg" p-id="1566"
     width="200" height="200">
    <path d="M1987.047619 219.428571a36.571429 36.571429 0 0 0-36.571429 36.571429v512a36.571429 36.571429 0 1 0 73.142858 0v-512A36.571429 36.571429 0 0 0 1987.047619 219.428571z m-243.809524 48.761905a36.571429 36.571429 0 0 0-36.571428 36.571429v414.47619a36.571429 36.571429 0 1 0 73.142857 0v-414.47619a36.571429 36.571429 0 0 0-36.571429-36.571429z m-243.809524-73.142857A36.571429 36.571429 0 0 0 1462.857143 231.619048v585.142857a36.571429 36.571429 0 1 0 73.142857 0v-585.142857A36.571429 36.571429 0 0 0 1499.428571 195.047619z m-243.809523 121.904762a36.571429 36.571429 0 0 0-36.571429 36.571429v292.571428a36.571429 36.571429 0 1 0 73.142857 0v-292.571428a36.571429 36.571429 0 0 0-36.571428-36.571429z m5607.619047 73.142857a36.571429 36.571429 0 0 0-36.571428 36.571429v146.285714a36.571429 36.571429 0 1 0 73.142857 0v-146.285714a36.571429 36.571429 0 0 0-36.571429-36.571429z m-5851.428571-24.380952a36.571429 36.571429 0 0 0-36.571429 36.571428v195.047619a36.571429 36.571429 0 1 0 73.142857 0v-195.047619a36.571429 36.571429 0 0 0-36.571428-36.571428z m5607.619047-48.761905a36.571429 36.571429 0 0 0-36.571428 36.571429v292.571428a36.571429 36.571429 0 1 0 73.142857 0v-292.571428a36.571429 36.571429 0 0 0-36.571429-36.571429z m-5851.428571-48.761905a36.571429 36.571429 0 0 0-36.571429 36.571429v414.47619a36.571429 36.571429 0 1 0 73.142858 0v-414.47619a36.571429 36.571429 0 0 0-36.571429-36.571429z m5607.619048-73.142857a36.571429 36.571429 0 0 0-36.571429 36.571429v560.761904a36.571429 36.571429 0 1 0 73.142857 0v-560.761904a36.571429 36.571429 0 0 0-36.571428-36.571429z m-5851.428572 170.666667a36.571429 36.571429 0 0 0-36.571428 36.571428v219.428572a36.571429 36.571429 0 1 0 73.142857 0v-219.428572a36.571429 36.571429 0 0 0-36.571429-36.571428z m5607.619048-73.142857a36.571429 36.571429 0 0 0-36.571429 36.571428v365.714286a36.571429 36.571429 0 1 0 73.142857 0v-365.714286a36.571429 36.571429 0 0 0-36.571428-36.571428z m-5851.428572 73.142857a36.571429 36.571429 0 0 0-36.571428 36.571428v195.047619a36.571429 36.571429 0 1 0 73.142857 0v-195.047619a36.571429 36.571429 0 0 0-36.571429-36.571428z m5607.619048-121.904762a36.571429 36.571429 0 0 0-36.571429 36.571428v438.857143a36.571429 36.571429 0 1 0 73.142858 0v-438.857143a36.571429 36.571429 0 0 0-36.571429-36.571428z m-5851.428571 195.047619A36.571429 36.571429 0 0 0 0 475.428571v48.761905a36.571429 36.571429 0 1 0 73.142857 0v-48.761905A36.571429 36.571429 0 0 0 36.571429 438.857143z m5607.619047-268.190476a36.571429 36.571429 0 0 0-36.571428 36.571428v585.142857a36.571429 36.571429 0 1 0 73.142857 0v-585.142857a36.571429 36.571429 0 0 0-36.571429-36.571428z m-3413.333333-97.52381A36.571429 36.571429 0 0 0 2194.285714 109.714286v804.571428a36.571429 36.571429 0 1 0 73.142857 0v-804.571428A36.571429 36.571429 0 0 0 2230.857143 73.142857z m243.809524 48.761905a36.571429 36.571429 0 0 0-36.571429 36.571428v707.04762a36.571429 36.571429 0 1 0 73.142857 0v-707.04762a36.571429 36.571429 0 0 0-36.571428-36.571428z m243.809523 195.047619a36.571429 36.571429 0 0 0-36.571428 36.571429v341.333333a36.571429 36.571429 0 1 0 73.142857 0v-341.333333a36.571429 36.571429 0 0 0-36.571429-36.571429z m1462.857143-97.52381a36.571429 36.571429 0 0 0-36.571428 36.571429v536.380952a36.571429 36.571429 0 1 0 73.142857 0v-536.380952a36.571429 36.571429 0 0 0-36.571429-36.571429z m-1219.047619-97.523809a36.571429 36.571429 0 0 0-36.571428 36.571428v707.04762a36.571429 36.571429 0 1 0 73.142857 0v-707.04762a36.571429 36.571429 0 0 0-36.571429-36.571428z m1462.857143 0a36.571429 36.571429 0 0 0-36.571428 36.571428v707.04762a36.571429 36.571429 0 1 0 73.142857 0v-707.04762a36.571429 36.571429 0 0 0-36.571429-36.571428z m-1219.047619 48.761905a36.571429 36.571429 0 0 0-36.571428 36.571428v633.904762a36.571429 36.571429 0 1 0 73.142857 0v-633.904762a36.571429 36.571429 0 0 0-36.571429-36.571428z m1462.857143 97.523809a36.571429 36.571429 0 0 0-36.571429 36.571429v438.857143a36.571429 36.571429 0 1 0 73.142858 0v-438.857143a36.571429 36.571429 0 0 0-36.571429-36.571429z m-1219.047619-268.190476a36.571429 36.571429 0 0 0-36.571429 36.571429v950.857142a36.571429 36.571429 0 1 0 73.142857 0v-950.857142a36.571429 36.571429 0 0 0-36.571428-36.571429z m1462.857143 316.952381a36.571429 36.571429 0 0 0-36.571429 36.571429v341.333333a36.571429 36.571429 0 1 0 73.142857 0v-341.333333a36.571429 36.571429 0 0 0-36.571428-36.571429z m-1219.047619-48.761905a36.571429 36.571429 0 0 0-36.571429 36.571429v438.857143a36.571429 36.571429 0 1 0 73.142857 0v-438.857143a36.571429 36.571429 0 0 0-36.571428-36.571429z m1462.857143-121.904762a36.571429 36.571429 0 0 0-36.571429 36.571429v658.285714a36.571429 36.571429 0 1 0 73.142857 0v-658.285714a36.571429 36.571429 0 0 0-36.571428-36.571429z m243.809523 170.666667a36.571429 36.571429 0 0 0-36.571428 36.571429v341.333333a36.571429 36.571429 0 1 0 73.142857 0v-341.333333a36.571429 36.571429 0 0 0-36.571429-36.571429z m-1462.857142-292.571429a36.571429 36.571429 0 0 0-36.571429 36.571429v902.095238a36.571429 36.571429 0 1 0 73.142857 0v-902.095238a36.571429 36.571429 0 0 0-36.571428-36.571429z"
          fill="#ae0606" p-id="1567"></path>
</svg>