<svg t="1707806604003" class="icon" viewBox="0 0 1024 1024" version="1.1" xmlns="http://www.w3.org/2000/svg"
     p-id="11397" width="200" height="200">
    <path d="M512 64A448 448 0 0 1 960 512 448 448 0 0 1 512 960 448 448 0 0 1 64 512 448 448 0 0 1 512 64z m113.757091 377.530182a196.189091 196.189091 0 0 0-58.740364 7.68c-32.535273 9.681455-60.695273 26.437818-82.525091 52.829091a121.483636 121.483636 0 0 0-28.997818 72.983272c-1.163636 22.016 3.956364 43.892364 14.754909 63.115637 16.616727 30.068364 41.704727 51.060364 72.750546 64.884363 42.635636 18.990545 86.714182 21.504 131.723636 9.402182a19.735273 19.735273 0 0 1 16.290909 2.094546c11.496727 6.749091 23.226182 13.451636 34.909091 20.200727 2.327273 1.396364 4.701091 2.001455 7.028364 0.093091 2.420364-1.861818 2.56-4.328727 1.815272-7.028364-2.606545-9.448727-5.12-18.850909-7.586909-28.299636-1.861818-7.168-0.744727-10.379636 5.213091-14.848 10.705455-7.912727 20.293818-17.221818 28.578909-27.694546 15.825455-20.061091 25.413818-42.728727 27.182546-68.421818a116.084364 116.084364 0 0 0-12.008727-60.369454c-15.034182-30.347636-38.865455-51.851636-68.794182-66.885818a183.761455 183.761455 0 0 0-81.594182-19.735273zM435.572364 287.976727a237.614545 237.614545 0 0 0-30.952728 1.954909 219.508364 219.508364 0 0 0-80.384 26.251637c-30.859636 17.408-55.808 40.866909-72.285091 72.564363a139.496727 139.496727 0 0 0-14.754909 87.272728c4.328727 28.392727 16.616727 53.154909 35.048728 75.031272 9.216 10.938182 19.735273 20.712727 31.232 29.137455 6.144 4.561455 7.773091 9.169455 5.864727 16.523636-2.094545 8.098909-4.282182 16.197818-6.469818 24.203637l-3.025455 11.170909c-0.791273 2.932364-0.465455 5.771636 2.141091 7.773091 2.606545 2.094545 5.306182 1.861818 8.005818 0.279272l1.722182-0.930909 41.937455-24.296727a20.805818 20.805818 0 0 1 16.802909-2.187636 237.381818 237.381818 0 0 0 73.495272 8.936727c2.234182-0.046545 2.466909-0.558545 1.815273-2.606546a124.276364 124.276364 0 0 1-5.585454-49.058909c2.048-24.901818 11.170909-48.779636 26.298181-68.701091 21.783273-29.463273 50.781091-48.872727 85.038546-61.02109a211.083636 211.083636 0 0 1 78.382545-11.636364c2.885818 0.046545 2.885818 0.046545 2.280728-2.699636a141.824 141.824 0 0 0-17.314909-44.497455c-20.293818-33.978182-49.664-57.669818-85.41091-73.774545a226.443636 226.443636 0 0 0-93.882181-19.688728z m130.792727 225.931637c12.194909 0 22.062545 9.867636 22.109091 22.062545a21.969455 21.969455 0 0 1-22.062546 22.248727 22.062545 22.062545 0 0 1-22.109091-22.016 22.248727 22.248727 0 0 1 22.109091-22.341818z m111.057454 0a22.109091 22.109091 0 1 1-22.155636 22.062545 22.341818 22.341818 0 0 1 22.155636-22.062545z m-308.596363-139.077819a26.670545 26.670545 0 0 1 0.139636 53.248 26.670545 26.670545 0 0 1-0.139636-53.248z m132.980363 0a26.624 26.624 0 0 1 0.279273 53.248 26.670545 26.670545 0 0 1-0.279273-53.248z"
          fill="#FFFFFF80" p-id="11398"></path>
</svg>