<svg fill="white" t="1707798343416" class="icon" viewBox="0 0 1024 1024" version="1.1"
     xmlns="http://www.w3.org/2000/svg" p-id="956" width="200" height="200">
    <path d="M868.36 519.64q-7.82-10.75-16.54-21.47 7.63-9.5 14.59-19c57.7-79.31 72.74-152 42.34-204.63s-100.85-76-198.38-65.64q-13.82 1.45-28.09 3.79-3.71-9.32-7.66-18.26c-39.83-89.62-95.25-139-156-139s-116.21 49.36-156 139q-4 9-7.72 18.41c-7.8-1.19-15.51-2.21-23.11-3-97.54-10.31-168 13-198.39 65.64S118 400.76 175.67 480.07c4.39 6 9 12.07 13.83 18.09q-8.3 10.24-15.79 20.55C116 598 101 670.69 131.37 723.33c25.69 44.49 80 68 155.05 68a414.86 414.86 0 0 0 43.33-2.33q10.58-1.12 21.42-2.76 5.4 14.37 11.37 27.87c39.83 89.62 95.25 139 156 139s116.21-49.36 156-139q6-13.4 11.31-27.69 13.38 2.13 26.39 3.51a412.29 412.29 0 0 0 43.33 2.39c75.07 0 129.37-23.55 155.06-68 30.47-52.7 15.43-125.32-42.27-204.68z m-152.73-261a362 362 0 0 1 38.1-2.11c55.72 0 95.57 15 111.72 43 19.63 34 5.24 88.75-39.47 150.21q-3.83 5.25-7.89 10.48c-27.53-28.54-59.33-56.37-94.45-82.65a764.19 764.19 0 0 0-24.72-116.87c5.63-0.82 11.2-1.53 16.71-2.11zM601.74 640.4c-27.11 15.65-54.49 29.69-81.73 42-26.56-12.06-53.25-25.78-79.68-41A916.9 916.9 0 0 1 359 588.57c-2.52-27.41-3.81-55.63-3.81-84.33a918.61 918.61 0 0 1 5-96.31 919.53 919.53 0 0 1 78.17-50.49c27.07-15.63 54.41-29.64 81.61-41.92a922.68 922.68 0 0 1 83.71 42.86c25.53 14.74 49.94 30.41 73 46.76a916.2 916.2 0 0 1 5.29 99.1c0 29.69-1.39 58.86-4.08 87.15-23.96 17.16-49.44 33.61-76.15 49.01z m67.12 17.6a685.58 685.58 0 0 1-16.42 70.8 676 676 0 0 1-70-21q22.2-11.35 44.25-24.06 21.62-12.49 42.17-25.74z m-211.43 49.59A669.34 669.34 0 0 1 384.78 729a687.23 687.23 0 0 1-16.93-73.54q23.07 15.11 47.48 29.22 20.96 12.06 42.1 22.91z m-151.31-161a663.48 663.48 0 0 1-50.36-48.28A671.08 671.08 0 0 1 306.7 450q-1.47 26.82-1.48 54.27 0 21.33 0.9 42.35z m64-206A661.65 661.65 0 0 1 387.63 270a664.21 664.21 0 0 1 69.43 20.34q-21.92 11.22-43.68 23.76-22.15 12.84-43.24 26.51z m212.73-50.39a675.06 675.06 0 0 1 66.74-20 657.44 657.44 0 0 1 16.95 67.82q-18.51-11.81-37.84-23-22.81-13.11-45.85-24.82z m147.4 156.35a681.78 681.78 0 0 1 55.2 51.79 673.79 673.79 0 0 1-54.57 51.72q1.05-22.69 1.07-45.82 0.05-29.16-1.7-57.69z m-322-231.84c30.87-69.45 71.09-109.29 110.35-109.29s79.48 39.84 110.35 109.29q1.82 4.09 3.57 8.28A781.28 781.28 0 0 0 519.92 261a773.94 773.94 0 0 0-115.16-38.3q1.71-4.01 3.47-7.99zM216.1 450.65c-44.72-61.46-59.1-116.21-39.48-150.21 16.16-28 56-43 111.72-43a364.94 364.94 0 0 1 38.11 2.11c3.87 0.41 7.78 0.9 11.71 1.42-11.07 37-19.48 77.29-25 119.68a777.13 777.13 0 0 0-89.93 79.48c-2.46-3.13-4.84-6.33-7.13-9.48z m108.39 288.6c-75.58 8-130.19-6.92-149.82-40.92s-5.24-88.75 39.47-150.21q4.26-5.85 8.83-11.7a770.28 770.28 0 0 0 88.62 79.07A788.36 788.36 0 0 0 335.37 738q-5.47 0.67-10.88 1.25z m304.44 54.53c-30.87 69.45-71.09 109.29-110.35 109.29s-79.48-39.84-110.35-109.29q-3.75-8.44-7.24-17.3c38.47-9.22 78.52-22.55 118.93-39.56a780.53 780.53 0 0 0 116.35 39.31q-3.56 8.97-7.34 17.55z m238.47-94.51c-19.63 34-74.24 48.91-149.82 40.92q-7.85-0.84-15.86-2a787 787 0 0 0 23.49-119.63c34.65-26.2 66-53.89 93.1-82.28q5 6.38 9.62 12.75c44.72 61.49 59.07 116.24 39.47 150.24z"
          p-id="957"></path>
    <path d="M488.65 519.81h-48.31c-6.31 0-10.66-5.26-8.41-10.17l48-105c1.33-2.91 4.68-4.83 8.41-4.83h81c6.39 0 10.75 5.4 8.34 10.33l-27.95 57.17h52.61c7.74 0 11.87 7.6 6.77 12.45l-129 122.49c-6.27 6-17.89 0.8-15.46-6.86z m0 0"
          p-id="958"></path>
</svg>